<mxfile host="app.diagrams.net" modified="2023-06-28T17:38:24.374Z" agent="Mozilla/5.0 (Macintosh; Intel Mac OS X 10_15_7) AppleWebKit/537.36 (KHTML, like Gecko) Chrome/114.0.0.0 Safari/537.36" etag="w6zjimlZQCv1PiogH7f7" version="21.5.1" type="device">
  <diagram name="Page-1" id="0783ab3e-0a74-02c8-0abd-f7b4e66b4bec">
    <mxGraphModel dx="1063" dy="544" grid="1" gridSize="10" guides="1" tooltips="1" connect="1" arrows="1" fold="1" page="1" pageScale="1" pageWidth="850" pageHeight="1100" background="none" math="0" shadow="0">
      <root>
        <mxCell id="0" />
        <mxCell id="1" parent="0" />
        <mxCell id="y0zhd_hXmwGebYRurzh6-64" value="System przechodzi do monitorowania warunków pogodowych" style="rounded=1;whiteSpace=wrap;html=1;shadow=0;comic=0;labelBackgroundColor=none;strokeWidth=1;fontFamily=Verdana;fontSize=12;align=center;arcSize=50;" vertex="1" parent="1">
          <mxGeometry x="50" y="480" width="230" height="40" as="geometry" />
        </mxCell>
        <mxCell id="y0zhd_hXmwGebYRurzh6-65" value="&lt;font style=&quot;font-size: 9px;&quot;&gt;Jeśli system ma zaplanowane pomiary na konkretną godzinę lub wystąpiły warunki sprzyjające monitorowaniu, system przechodzi do badania warunków atmosferycznych&lt;/font&gt;" style="shape=note;whiteSpace=wrap;html=1;rounded=0;shadow=0;comic=0;labelBackgroundColor=none;strokeWidth=1;fontFamily=Verdana;fontSize=12;align=center;size=20;" vertex="1" parent="1">
          <mxGeometry x="80" y="160" width="160" height="90" as="geometry" />
        </mxCell>
        <mxCell id="y0zhd_hXmwGebYRurzh6-66" value="" style="whiteSpace=wrap;html=1;rounded=0;shadow=0;comic=0;labelBackgroundColor=none;strokeWidth=1;fillColor=#000000;fontFamily=Verdana;fontSize=12;align=center;rotation=0;" vertex="1" parent="1">
          <mxGeometry x="93" y="545" width="147" height="10" as="geometry" />
        </mxCell>
        <mxCell id="y0zhd_hXmwGebYRurzh6-67" value="" style="endArrow=classic;html=1;rounded=0;exitX=0.455;exitY=0.982;exitDx=0;exitDy=0;exitPerimeter=0;entryX=0.427;entryY=0.128;entryDx=0;entryDy=0;entryPerimeter=0;" edge="1" parent="1" source="y0zhd_hXmwGebYRurzh6-64" target="y0zhd_hXmwGebYRurzh6-66">
          <mxGeometry width="50" height="50" relative="1" as="geometry">
            <mxPoint x="190" y="690" as="sourcePoint" />
            <mxPoint x="240" y="640" as="targetPoint" />
          </mxGeometry>
        </mxCell>
        <mxCell id="y0zhd_hXmwGebYRurzh6-68" value="" style="endArrow=classic;html=1;rounded=0;entryX=0.301;entryY=-0.068;entryDx=0;entryDy=0;entryPerimeter=0;" edge="1" parent="1" target="y0zhd_hXmwGebYRurzh6-81">
          <mxGeometry width="50" height="50" relative="1" as="geometry">
            <mxPoint x="200" y="560" as="sourcePoint" />
            <mxPoint x="380" y="600" as="targetPoint" />
            <Array as="points">
              <mxPoint x="200" y="600" />
              <mxPoint x="370" y="600" />
            </Array>
          </mxGeometry>
        </mxCell>
        <mxCell id="y0zhd_hXmwGebYRurzh6-69" value="&lt;font style=&quot;font-size: 9px;&quot;&gt;W zależności od konkretnej konfiguracji, po zakończeniu monitorowania, system przechodzi w stan offline lub wraca do oczekiwania na kolejne działania&lt;/font&gt;" style="shape=note;whiteSpace=wrap;html=1;rounded=0;shadow=0;comic=0;labelBackgroundColor=none;strokeWidth=1;fontFamily=Verdana;fontSize=12;align=center;size=20;" vertex="1" parent="1">
          <mxGeometry x="50" y="650" width="150" height="120" as="geometry" />
        </mxCell>
        <mxCell id="y0zhd_hXmwGebYRurzh6-70" style="edgeStyle=none;rounded=0;html=1;dashed=1;labelBackgroundColor=none;startArrow=none;startFill=0;startSize=5;endArrow=oval;endFill=0;endSize=5;jettySize=auto;orthogonalLoop=1;strokeWidth=1;fontFamily=Verdana;fontSize=12;exitX=0.71;exitY=1.027;exitDx=0;exitDy=0;exitPerimeter=0;" edge="1" parent="1">
          <mxGeometry relative="1" as="geometry">
            <mxPoint x="70" y="650" as="sourcePoint" />
            <mxPoint x="210" y="600" as="targetPoint" />
          </mxGeometry>
        </mxCell>
        <mxCell id="y0zhd_hXmwGebYRurzh6-71" style="edgeStyle=none;rounded=0;html=1;dashed=1;labelBackgroundColor=none;startArrow=none;startFill=0;startSize=5;endArrow=oval;endFill=0;endSize=5;jettySize=auto;orthogonalLoop=1;strokeWidth=1;fontFamily=Verdana;fontSize=12;exitX=0.71;exitY=1.027;exitDx=0;exitDy=0;exitPerimeter=0;" edge="1" parent="1">
          <mxGeometry relative="1" as="geometry">
            <mxPoint x="50" y="650" as="sourcePoint" />
            <mxPoint x="130" y="610" as="targetPoint" />
          </mxGeometry>
        </mxCell>
        <mxCell id="y0zhd_hXmwGebYRurzh6-72" value="" style="whiteSpace=wrap;html=1;rounded=0;shadow=0;comic=0;labelBackgroundColor=none;strokeWidth=1;fillColor=#000000;fontFamily=Verdana;fontSize=12;align=center;rotation=0;" vertex="1" parent="1">
          <mxGeometry x="381.5" y="280" width="147" height="10" as="geometry" />
        </mxCell>
        <mxCell id="y0zhd_hXmwGebYRurzh6-73" value="" style="ellipse;whiteSpace=wrap;html=1;rounded=0;shadow=0;comic=0;labelBackgroundColor=none;strokeWidth=1;fillColor=#000000;fontFamily=Verdana;fontSize=12;align=center;" vertex="1" parent="1">
          <mxGeometry x="435" y="70" width="40" height="40" as="geometry" />
        </mxCell>
        <mxCell id="y0zhd_hXmwGebYRurzh6-74" value="Monitorowanie przycisków&amp;nbsp;lub zdarzeń wyzwalających, takich jak zmiana godziny, zbliżające się pomiary lub specyficzne warunki pogodowe" style="rounded=1;whiteSpace=wrap;html=1;shadow=0;comic=0;labelBackgroundColor=none;strokeWidth=1;fontFamily=Verdana;fontSize=12;align=center;arcSize=50;" vertex="1" parent="1">
          <mxGeometry x="340" y="140" width="230" height="100" as="geometry" />
        </mxCell>
        <mxCell id="y0zhd_hXmwGebYRurzh6-75" value="" style="endArrow=classic;html=1;rounded=0;exitX=0.5;exitY=1;exitDx=0;exitDy=0;entryX=0.5;entryY=0;entryDx=0;entryDy=0;" edge="1" parent="1" source="y0zhd_hXmwGebYRurzh6-73" target="y0zhd_hXmwGebYRurzh6-74">
          <mxGeometry width="50" height="50" relative="1" as="geometry">
            <mxPoint x="470" y="120" as="sourcePoint" />
            <mxPoint x="520" y="70" as="targetPoint" />
          </mxGeometry>
        </mxCell>
        <mxCell id="y0zhd_hXmwGebYRurzh6-76" value="" style="endArrow=classic;html=1;rounded=0;exitX=0.5;exitY=1;exitDx=0;exitDy=0;entryX=0.5;entryY=0;entryDx=0;entryDy=0;" edge="1" parent="1" source="y0zhd_hXmwGebYRurzh6-74" target="y0zhd_hXmwGebYRurzh6-72">
          <mxGeometry width="50" height="50" relative="1" as="geometry">
            <mxPoint x="520" y="370" as="sourcePoint" />
            <mxPoint x="570" y="320" as="targetPoint" />
          </mxGeometry>
        </mxCell>
        <mxCell id="y0zhd_hXmwGebYRurzh6-77" value="&lt;font style=&quot;font-size: 9px;&quot;&gt;System dostaje polecenie, aby rozpocząć monitorowanie warunków pogodowych&lt;/font&gt;" style="shape=note;whiteSpace=wrap;html=1;rounded=0;shadow=0;comic=0;labelBackgroundColor=none;strokeWidth=1;fontFamily=Verdana;fontSize=12;align=center;size=20;" vertex="1" parent="1">
          <mxGeometry x="381.5" y="320" width="138.5" height="50" as="geometry" />
        </mxCell>
        <mxCell id="y0zhd_hXmwGebYRurzh6-78" style="edgeStyle=none;rounded=0;html=1;dashed=1;labelBackgroundColor=none;startArrow=none;startFill=0;startSize=5;endArrow=oval;endFill=0;endSize=5;jettySize=auto;orthogonalLoop=1;strokeWidth=1;fontFamily=Verdana;fontSize=12;exitX=0.71;exitY=1.027;exitDx=0;exitDy=0;exitPerimeter=0;" edge="1" parent="1">
          <mxGeometry relative="1" as="geometry">
            <mxPoint x="381.5" y="370" as="sourcePoint" />
            <mxPoint x="350" y="440" as="targetPoint" />
          </mxGeometry>
        </mxCell>
        <mxCell id="y0zhd_hXmwGebYRurzh6-79" value="&lt;font style=&quot;font-size: 9px;&quot;&gt;System dostaje polecenie, aby przejść w stan oczekiwania&amp;nbsp;&lt;/font&gt;" style="shape=note;whiteSpace=wrap;html=1;rounded=0;shadow=0;comic=0;labelBackgroundColor=none;strokeWidth=1;fontFamily=Verdana;fontSize=12;align=center;size=20;" vertex="1" parent="1">
          <mxGeometry x="405" y="380" width="105" height="55" as="geometry" />
        </mxCell>
        <mxCell id="y0zhd_hXmwGebYRurzh6-80" style="edgeStyle=none;rounded=0;html=1;dashed=1;labelBackgroundColor=none;startArrow=none;startFill=0;startSize=5;endArrow=oval;endFill=0;endSize=5;jettySize=auto;orthogonalLoop=1;strokeWidth=1;fontFamily=Verdana;fontSize=12;exitX=0.71;exitY=1.027;exitDx=0;exitDy=0;exitPerimeter=0;" edge="1" parent="1">
          <mxGeometry relative="1" as="geometry">
            <mxPoint x="505" y="410" as="sourcePoint" />
            <mxPoint x="580" y="380" as="targetPoint" />
          </mxGeometry>
        </mxCell>
        <mxCell id="y0zhd_hXmwGebYRurzh6-81" value="System przechodzi w stan offline" style="rounded=1;whiteSpace=wrap;html=1;shadow=0;comic=0;labelBackgroundColor=none;strokeWidth=1;fontFamily=Verdana;fontSize=12;align=center;arcSize=50;" vertex="1" parent="1">
          <mxGeometry x="342.5" y="630" width="230" height="40" as="geometry" />
        </mxCell>
        <mxCell id="y0zhd_hXmwGebYRurzh6-82" value="Ponowne uruchomienie systemu" style="rounded=1;whiteSpace=wrap;html=1;shadow=0;comic=0;labelBackgroundColor=none;strokeWidth=1;fontFamily=Verdana;fontSize=12;align=center;arcSize=50;" vertex="1" parent="1">
          <mxGeometry x="465" y="740" width="114" height="60" as="geometry" />
        </mxCell>
        <mxCell id="y0zhd_hXmwGebYRurzh6-83" value="Włączenie stacji pogodowej&lt;br style=&quot;border-color: var(--border-color);&quot;&gt;&lt;span style=&quot;border-color: var(--border-color);&quot;&gt;przez naciśnięcie przycisku&lt;/span&gt;&lt;br style=&quot;border-color: var(--border-color);&quot;&gt;&lt;span style=&quot;border-color: var(--border-color);&quot;&gt;zasilania&lt;/span&gt;" style="rounded=1;whiteSpace=wrap;html=1;shadow=0;comic=0;labelBackgroundColor=none;strokeWidth=1;fontFamily=Verdana;fontSize=12;align=center;arcSize=50;" vertex="1" parent="1">
          <mxGeometry x="330" y="730" width="130" height="90" as="geometry" />
        </mxCell>
        <mxCell id="y0zhd_hXmwGebYRurzh6-84" value="" style="endArrow=classic;html=1;rounded=0;exitX=0.201;exitY=1.048;exitDx=0;exitDy=0;exitPerimeter=0;" edge="1" parent="1" source="y0zhd_hXmwGebYRurzh6-81" target="y0zhd_hXmwGebYRurzh6-83">
          <mxGeometry width="50" height="50" relative="1" as="geometry">
            <mxPoint x="430" y="890" as="sourcePoint" />
            <mxPoint x="480" y="840" as="targetPoint" />
          </mxGeometry>
        </mxCell>
        <mxCell id="y0zhd_hXmwGebYRurzh6-85" value="" style="endArrow=classic;html=1;rounded=0;exitX=0.5;exitY=1;exitDx=0;exitDy=0;" edge="1" parent="1" source="y0zhd_hXmwGebYRurzh6-83">
          <mxGeometry width="50" height="50" relative="1" as="geometry">
            <mxPoint x="390" y="920" as="sourcePoint" />
            <mxPoint x="440" y="870" as="targetPoint" />
            <Array as="points">
              <mxPoint x="395" y="840" />
              <mxPoint x="440" y="840" />
            </Array>
          </mxGeometry>
        </mxCell>
        <mxCell id="y0zhd_hXmwGebYRurzh6-86" value="" style="endArrow=classic;html=1;rounded=0;exitX=0.5;exitY=1;exitDx=0;exitDy=0;" edge="1" parent="1" source="y0zhd_hXmwGebYRurzh6-82">
          <mxGeometry width="50" height="50" relative="1" as="geometry">
            <mxPoint x="460" y="980" as="sourcePoint" />
            <mxPoint x="480" y="870" as="targetPoint" />
            <Array as="points">
              <mxPoint x="520" y="840" />
              <mxPoint x="480" y="840" />
            </Array>
          </mxGeometry>
        </mxCell>
        <mxCell id="y0zhd_hXmwGebYRurzh6-87" value="Przejście do inicjalizacji całego systemu na nowo opisanego na diagramie &quot;gotowość&quot;" style="rounded=1;whiteSpace=wrap;html=1;shadow=0;comic=0;labelBackgroundColor=none;strokeWidth=1;fontFamily=Verdana;fontSize=12;align=center;arcSize=50;" vertex="1" parent="1">
          <mxGeometry x="340" y="910" width="220" height="60" as="geometry" />
        </mxCell>
        <mxCell id="y0zhd_hXmwGebYRurzh6-88" value="" style="whiteSpace=wrap;html=1;rounded=0;shadow=0;comic=0;labelBackgroundColor=none;strokeWidth=1;fillColor=#000000;fontFamily=Verdana;fontSize=12;align=center;rotation=0;" vertex="1" parent="1">
          <mxGeometry x="405" y="870" width="120" height="10" as="geometry" />
        </mxCell>
        <mxCell id="y0zhd_hXmwGebYRurzh6-89" value="" style="endArrow=classic;html=1;rounded=0;exitX=0.424;exitY=1.191;exitDx=0;exitDy=0;exitPerimeter=0;" edge="1" parent="1" source="y0zhd_hXmwGebYRurzh6-88" target="y0zhd_hXmwGebYRurzh6-87">
          <mxGeometry width="50" height="50" relative="1" as="geometry">
            <mxPoint x="620" y="1020" as="sourcePoint" />
            <mxPoint x="670" y="970" as="targetPoint" />
          </mxGeometry>
        </mxCell>
        <mxCell id="y0zhd_hXmwGebYRurzh6-90" style="edgeStyle=none;rounded=0;html=1;labelBackgroundColor=none;startArrow=none;startFill=0;startSize=5;endArrow=classicThin;endFill=1;endSize=5;jettySize=auto;orthogonalLoop=1;strokeWidth=1;fontFamily=Verdana;fontSize=12" edge="1" parent="1" target="y0zhd_hXmwGebYRurzh6-91">
          <mxGeometry relative="1" as="geometry">
            <mxPoint x="450.75" y="970" as="sourcePoint" />
          </mxGeometry>
        </mxCell>
        <mxCell id="y0zhd_hXmwGebYRurzh6-91" value="" style="shape=mxgraph.bpmn.shape;html=1;verticalLabelPosition=bottom;labelBackgroundColor=#ffffff;verticalAlign=top;perimeter=ellipsePerimeter;outline=end;symbol=terminate;rounded=0;shadow=0;comic=0;strokeWidth=1;fontFamily=Verdana;fontSize=12;align=center;" vertex="1" parent="1">
          <mxGeometry x="430.75" y="1010" width="40" height="40" as="geometry" />
        </mxCell>
        <mxCell id="y0zhd_hXmwGebYRurzh6-92" value="" style="endArrow=classic;html=1;rounded=0;exitX=0.25;exitY=1;exitDx=0;exitDy=0;entryX=0.39;entryY=-0.076;entryDx=0;entryDy=0;entryPerimeter=0;" edge="1" parent="1" source="y0zhd_hXmwGebYRurzh6-72" target="y0zhd_hXmwGebYRurzh6-64">
          <mxGeometry width="50" height="50" relative="1" as="geometry">
            <mxPoint x="380" y="450" as="sourcePoint" />
            <mxPoint x="140" y="340" as="targetPoint" />
            <Array as="points">
              <mxPoint x="378" y="310" />
              <mxPoint x="140" y="310" />
            </Array>
          </mxGeometry>
        </mxCell>
        <mxCell id="y0zhd_hXmwGebYRurzh6-93" value="" style="endArrow=classic;html=1;rounded=0;exitX=0.07;exitY=1.191;exitDx=0;exitDy=0;exitPerimeter=0;entryX=0.75;entryY=0;entryDx=0;entryDy=0;" edge="1" parent="1" source="y0zhd_hXmwGebYRurzh6-102" target="y0zhd_hXmwGebYRurzh6-64">
          <mxGeometry width="50" height="50" relative="1" as="geometry">
            <mxPoint x="640" y="510" as="sourcePoint" />
            <mxPoint x="260" y="430" as="targetPoint" />
            <Array as="points">
              <mxPoint x="608" y="440" />
              <mxPoint x="223" y="440" />
            </Array>
          </mxGeometry>
        </mxCell>
        <mxCell id="y0zhd_hXmwGebYRurzh6-94" value="" style="endArrow=classic;html=1;rounded=0;exitX=0.144;exitY=1.264;exitDx=0;exitDy=0;exitPerimeter=0;entryX=0.955;entryY=0.816;entryDx=0;entryDy=0;entryPerimeter=0;" edge="1" parent="1" source="y0zhd_hXmwGebYRurzh6-102" target="y0zhd_hXmwGebYRurzh6-74">
          <mxGeometry width="50" height="50" relative="1" as="geometry">
            <mxPoint x="680" y="500" as="sourcePoint" />
            <mxPoint x="730" y="450" as="targetPoint" />
            <Array as="points">
              <mxPoint x="620" y="440" />
              <mxPoint x="620" y="460" />
              <mxPoint x="520" y="460" />
              <mxPoint x="520" y="390" />
              <mxPoint x="520" y="370" />
              <mxPoint x="520" y="260" />
            </Array>
          </mxGeometry>
        </mxCell>
        <mxCell id="y0zhd_hXmwGebYRurzh6-95" value="" style="endArrow=classic;html=1;rounded=0;exitX=0.25;exitY=1;exitDx=0;exitDy=0;entryX=0.414;entryY=-0.043;entryDx=0;entryDy=0;entryPerimeter=0;" edge="1" parent="1" source="y0zhd_hXmwGebYRurzh6-102" target="y0zhd_hXmwGebYRurzh6-81">
          <mxGeometry width="50" height="50" relative="1" as="geometry">
            <mxPoint x="670" y="570" as="sourcePoint" />
            <mxPoint x="634" y="610" as="targetPoint" />
            <Array as="points">
              <mxPoint x="634" y="510" />
              <mxPoint x="438" y="510" />
            </Array>
          </mxGeometry>
        </mxCell>
        <mxCell id="y0zhd_hXmwGebYRurzh6-96" value="" style="endArrow=classic;html=1;rounded=0;exitX=0.25;exitY=1;exitDx=0;exitDy=0;entryX=0;entryY=0.75;entryDx=0;entryDy=0;" edge="1" parent="1" source="y0zhd_hXmwGebYRurzh6-66" target="y0zhd_hXmwGebYRurzh6-74">
          <mxGeometry width="50" height="50" relative="1" as="geometry">
            <mxPoint x="110" y="710" as="sourcePoint" />
            <mxPoint x="270" y="220" as="targetPoint" />
            <Array as="points">
              <mxPoint x="130" y="630" />
              <mxPoint x="270" y="630" />
              <mxPoint x="270" y="215" />
            </Array>
          </mxGeometry>
        </mxCell>
        <mxCell id="y0zhd_hXmwGebYRurzh6-97" style="edgeStyle=none;rounded=0;html=1;dashed=1;labelBackgroundColor=none;startArrow=none;startFill=0;startSize=5;endArrow=oval;endFill=0;endSize=5;jettySize=auto;orthogonalLoop=1;strokeWidth=1;fontFamily=Verdana;fontSize=12" edge="1" parent="1" source="y0zhd_hXmwGebYRurzh6-98">
          <mxGeometry relative="1" as="geometry">
            <mxPoint x="460" y="120" as="targetPoint" />
          </mxGeometry>
        </mxCell>
        <mxCell id="y0zhd_hXmwGebYRurzh6-98" value="&lt;font style=&quot;font-size: 9px;&quot;&gt;W tym czasie system wyświetla&amp;nbsp;podstawowe informacje, takie jak aktualna data i godzina&lt;/font&gt;" style="shape=note;whiteSpace=wrap;html=1;rounded=0;shadow=0;comic=0;labelBackgroundColor=none;strokeWidth=1;fontFamily=Verdana;fontSize=12;align=center;size=20;" vertex="1" parent="1">
          <mxGeometry x="650" y="90" width="140" height="60" as="geometry" />
        </mxCell>
        <mxCell id="y0zhd_hXmwGebYRurzh6-99" value="" style="endArrow=classic;html=1;rounded=0;" edge="1" parent="1">
          <mxGeometry width="50" height="50" relative="1" as="geometry">
            <mxPoint x="490" y="290" as="sourcePoint" />
            <mxPoint x="720" y="340" as="targetPoint" />
            <Array as="points">
              <mxPoint x="490" y="310" />
              <mxPoint x="720" y="310" />
            </Array>
          </mxGeometry>
        </mxCell>
        <mxCell id="y0zhd_hXmwGebYRurzh6-100" value="Przejście do menu głównego w celu wybrania konkretnego trybu pracy" style="rounded=1;whiteSpace=wrap;html=1;shadow=0;comic=0;labelBackgroundColor=none;strokeWidth=1;fontFamily=Verdana;fontSize=12;align=center;arcSize=50;" vertex="1" parent="1">
          <mxGeometry x="590" y="340" width="230" height="30" as="geometry" />
        </mxCell>
        <mxCell id="y0zhd_hXmwGebYRurzh6-101" value="&lt;font style=&quot;font-size: 9px;&quot;&gt;System za pośrednictwem przycisku funkcyjnego przechodzi do menu głównego&lt;/font&gt;" style="shape=note;whiteSpace=wrap;html=1;rounded=0;shadow=0;comic=0;labelBackgroundColor=none;strokeWidth=1;fontFamily=Verdana;fontSize=12;align=center;size=20;" vertex="1" parent="1">
          <mxGeometry x="660" y="190" width="140" height="60" as="geometry" />
        </mxCell>
        <mxCell id="y0zhd_hXmwGebYRurzh6-102" value="" style="whiteSpace=wrap;html=1;rounded=0;shadow=0;comic=0;labelBackgroundColor=none;strokeWidth=1;fillColor=#000000;fontFamily=Verdana;fontSize=12;align=center;rotation=0;" vertex="1" parent="1">
          <mxGeometry x="637.5" y="400" width="147" height="10" as="geometry" />
        </mxCell>
        <mxCell id="y0zhd_hXmwGebYRurzh6-103" value="" style="endArrow=classic;html=1;rounded=0;entryX=0.5;entryY=0;entryDx=0;entryDy=0;" edge="1" parent="1" target="y0zhd_hXmwGebYRurzh6-102">
          <mxGeometry width="50" height="50" relative="1" as="geometry">
            <mxPoint x="710" y="370" as="sourcePoint" />
            <mxPoint x="730" y="490" as="targetPoint" />
          </mxGeometry>
        </mxCell>
        <mxCell id="y0zhd_hXmwGebYRurzh6-104" value="Rozpoczęcie konfiguracji sprzętowej" style="rounded=1;whiteSpace=wrap;html=1;shadow=0;comic=0;labelBackgroundColor=none;strokeWidth=1;fontFamily=Verdana;fontSize=12;align=center;arcSize=50;" vertex="1" parent="1">
          <mxGeometry x="596" y="560" width="114" height="60" as="geometry" />
        </mxCell>
        <mxCell id="y0zhd_hXmwGebYRurzh6-105" value="" style="endArrow=classic;html=1;rounded=0;exitX=0.335;exitY=1.2;exitDx=0;exitDy=0;exitPerimeter=0;entryX=0.39;entryY=-0.1;entryDx=0;entryDy=0;entryPerimeter=0;" edge="1" parent="1" source="y0zhd_hXmwGebYRurzh6-102" target="y0zhd_hXmwGebYRurzh6-104">
          <mxGeometry width="50" height="50" relative="1" as="geometry">
            <mxPoint x="720" y="560" as="sourcePoint" />
            <mxPoint x="770" y="510" as="targetPoint" />
            <Array as="points">
              <mxPoint x="690" y="540" />
              <mxPoint x="640" y="540" />
            </Array>
          </mxGeometry>
        </mxCell>
        <mxCell id="y0zhd_hXmwGebYRurzh6-106" value="" style="whiteSpace=wrap;html=1;rounded=0;shadow=0;comic=0;labelBackgroundColor=none;strokeWidth=1;fillColor=#000000;fontFamily=Verdana;fontSize=12;align=center;rotation=0;" vertex="1" parent="1">
          <mxGeometry x="590" y="640" width="120" height="10" as="geometry" />
        </mxCell>
        <mxCell id="y0zhd_hXmwGebYRurzh6-107" value="" style="endArrow=classic;html=1;rounded=0;exitX=0.427;exitY=1.014;exitDx=0;exitDy=0;exitPerimeter=0;entryX=0.448;entryY=0.082;entryDx=0;entryDy=0;entryPerimeter=0;" edge="1" parent="1" source="y0zhd_hXmwGebYRurzh6-104" target="y0zhd_hXmwGebYRurzh6-106">
          <mxGeometry width="50" height="50" relative="1" as="geometry">
            <mxPoint x="700" y="720" as="sourcePoint" />
            <mxPoint x="750" y="670" as="targetPoint" />
          </mxGeometry>
        </mxCell>
        <mxCell id="y0zhd_hXmwGebYRurzh6-108" value="" style="endArrow=classic;html=1;rounded=0;exitX=0.25;exitY=1;exitDx=0;exitDy=0;" edge="1" parent="1" source="y0zhd_hXmwGebYRurzh6-106">
          <mxGeometry width="50" height="50" relative="1" as="geometry">
            <mxPoint x="650" y="760" as="sourcePoint" />
            <mxPoint x="540" y="740" as="targetPoint" />
            <Array as="points">
              <mxPoint x="620" y="710" />
              <mxPoint x="540" y="710" />
            </Array>
          </mxGeometry>
        </mxCell>
        <mxCell id="y0zhd_hXmwGebYRurzh6-109" value="" style="endArrow=classic;html=1;rounded=0;exitX=0.389;exitY=1.446;exitDx=0;exitDy=0;exitPerimeter=0;entryX=0.908;entryY=1.049;entryDx=0;entryDy=0;entryPerimeter=0;" edge="1" parent="1" source="y0zhd_hXmwGebYRurzh6-106" target="y0zhd_hXmwGebYRurzh6-100">
          <mxGeometry width="50" height="50" relative="1" as="geometry">
            <mxPoint x="670" y="730" as="sourcePoint" />
            <mxPoint x="720" y="680" as="targetPoint" />
            <Array as="points">
              <mxPoint x="640" y="750" />
              <mxPoint x="799" y="750" />
            </Array>
          </mxGeometry>
        </mxCell>
        <mxCell id="y0zhd_hXmwGebYRurzh6-110" value="&lt;font style=&quot;font-size: 9px;&quot;&gt;W zależności od powodzenia konfiguracji system wraca do menu głównego z komunikatem o powodzeniu lub porażce&lt;/font&gt;" style="shape=note;whiteSpace=wrap;html=1;rounded=0;shadow=0;comic=0;labelBackgroundColor=none;strokeWidth=1;fontFamily=Verdana;fontSize=12;align=center;size=20;" vertex="1" parent="1">
          <mxGeometry x="650.75" y="660" width="139.25" height="80" as="geometry" />
        </mxCell>
        <mxCell id="y0zhd_hXmwGebYRurzh6-111" style="edgeStyle=none;rounded=0;html=1;dashed=1;labelBackgroundColor=none;startArrow=none;startFill=0;startSize=5;endArrow=oval;endFill=0;endSize=5;jettySize=auto;orthogonalLoop=1;strokeWidth=1;fontFamily=Verdana;fontSize=12;exitX=0.71;exitY=1.027;exitDx=0;exitDy=0;exitPerimeter=0;" edge="1" parent="1">
          <mxGeometry relative="1" as="geometry">
            <mxPoint x="735" y="660" as="sourcePoint" />
            <mxPoint x="800" y="600" as="targetPoint" />
          </mxGeometry>
        </mxCell>
        <mxCell id="y0zhd_hXmwGebYRurzh6-112" value="&lt;font style=&quot;font-size: 9px;&quot;&gt;Zmiany wprowadzone podczas konfiguracji sprzętu mogą wymagać ponownego uruchomienia&lt;/font&gt;" style="shape=note;whiteSpace=wrap;html=1;rounded=0;shadow=0;comic=0;labelBackgroundColor=none;strokeWidth=1;fontFamily=Verdana;fontSize=12;align=center;size=20;" vertex="1" parent="1">
          <mxGeometry x="590" y="780" width="109.5" height="80" as="geometry" />
        </mxCell>
        <mxCell id="y0zhd_hXmwGebYRurzh6-113" value="" style="endArrow=classic;html=1;rounded=0;exitX=0.453;exitY=1.073;exitDx=0;exitDy=0;exitPerimeter=0;" edge="1" parent="1" source="y0zhd_hXmwGebYRurzh6-102">
          <mxGeometry width="50" height="50" relative="1" as="geometry">
            <mxPoint x="830" y="520" as="sourcePoint" />
            <mxPoint x="870" y="530" as="targetPoint" />
            <Array as="points">
              <mxPoint x="704" y="480" />
              <mxPoint x="870" y="480" />
            </Array>
          </mxGeometry>
        </mxCell>
        <mxCell id="y0zhd_hXmwGebYRurzh6-114" value="System przechodzi w stan oszczędzania energii" style="rounded=1;whiteSpace=wrap;html=1;shadow=0;comic=0;labelBackgroundColor=none;strokeWidth=1;fontFamily=Verdana;fontSize=12;align=center;arcSize=50;" vertex="1" parent="1">
          <mxGeometry x="810" y="530" width="140" height="60" as="geometry" />
        </mxCell>
        <mxCell id="y0zhd_hXmwGebYRurzh6-115" value="" style="endArrow=classic;html=1;rounded=0;exitX=0.5;exitY=1;exitDx=0;exitDy=0;entryX=1;entryY=0.75;entryDx=0;entryDy=0;" edge="1" parent="1" source="y0zhd_hXmwGebYRurzh6-114" target="y0zhd_hXmwGebYRurzh6-100">
          <mxGeometry width="50" height="50" relative="1" as="geometry">
            <mxPoint x="890" y="700" as="sourcePoint" />
            <mxPoint x="940" y="650" as="targetPoint" />
            <Array as="points">
              <mxPoint x="880" y="610" />
              <mxPoint x="920" y="610" />
              <mxPoint x="960" y="610" />
              <mxPoint x="960" y="363" />
            </Array>
          </mxGeometry>
        </mxCell>
        <mxCell id="y0zhd_hXmwGebYRurzh6-116" value="" style="endArrow=classic;html=1;rounded=0;exitX=0.622;exitY=1.2;exitDx=0;exitDy=0;exitPerimeter=0;" edge="1" parent="1" source="y0zhd_hXmwGebYRurzh6-102">
          <mxGeometry width="50" height="50" relative="1" as="geometry">
            <mxPoint x="890" y="700" as="sourcePoint" />
            <mxPoint x="870" y="690" as="targetPoint" />
            <Array as="points">
              <mxPoint x="729" y="630" />
              <mxPoint x="870" y="630" />
            </Array>
          </mxGeometry>
        </mxCell>
        <mxCell id="y0zhd_hXmwGebYRurzh6-117" value="System przechodzi w stan awaryjny lub serwisowy" style="rounded=1;whiteSpace=wrap;html=1;shadow=0;comic=0;labelBackgroundColor=none;strokeWidth=1;fontFamily=Verdana;fontSize=12;align=center;arcSize=50;" vertex="1" parent="1">
          <mxGeometry x="810" y="690" width="140" height="60" as="geometry" />
        </mxCell>
        <mxCell id="y0zhd_hXmwGebYRurzh6-118" value="" style="endArrow=classic;html=1;rounded=0;exitX=0.5;exitY=1;exitDx=0;exitDy=0;entryX=0.5;entryY=0;entryDx=0;entryDy=0;" edge="1" parent="1" source="y0zhd_hXmwGebYRurzh6-117">
          <mxGeometry width="50" height="50" relative="1" as="geometry">
            <mxPoint x="850" y="910" as="sourcePoint" />
            <mxPoint x="880" y="780" as="targetPoint" />
          </mxGeometry>
        </mxCell>
        <mxCell id="y0zhd_hXmwGebYRurzh6-119" value="System przechodzi w stan uśpienia" style="rounded=1;whiteSpace=wrap;html=1;shadow=0;comic=0;labelBackgroundColor=none;strokeWidth=1;fontFamily=Verdana;fontSize=12;align=center;arcSize=50;" vertex="1" parent="1">
          <mxGeometry x="790" y="780" width="140" height="60" as="geometry" />
        </mxCell>
        <mxCell id="y0zhd_hXmwGebYRurzh6-120" style="edgeStyle=none;rounded=0;html=1;dashed=1;labelBackgroundColor=none;startArrow=none;startFill=0;startSize=5;endArrow=oval;endFill=0;endSize=5;jettySize=auto;orthogonalLoop=1;strokeWidth=1;fontFamily=Verdana;fontSize=12;entryX=0.75;entryY=1;entryDx=0;entryDy=0;" edge="1" parent="1" source="y0zhd_hXmwGebYRurzh6-121" target="y0zhd_hXmwGebYRurzh6-119">
          <mxGeometry relative="1" as="geometry">
            <mxPoint x="910" y="950" as="sourcePoint" />
            <mxPoint x="970" y="810" as="targetPoint" />
          </mxGeometry>
        </mxCell>
        <mxCell id="y0zhd_hXmwGebYRurzh6-121" value="&lt;font size=&quot;1&quot;&gt;System automatycznie przechodzi do stanu uśpienia w momencie gdy zostanie wprowadzony stan awaryjny lub serwisowy.&lt;br&gt;Aby w oczekiwaniu na technika mieć pewność, że sprzęt nie ulegnie dalszej awarii. Po odpowiedniej autoryzacji, stacja wraca do menu głównego&amp;nbsp;&lt;br&gt;&lt;/font&gt;" style="shape=note;whiteSpace=wrap;html=1;rounded=0;shadow=0;comic=0;labelBackgroundColor=none;strokeWidth=1;fontFamily=Verdana;fontSize=12;align=center;size=20;" vertex="1" parent="1">
          <mxGeometry x="690" y="900" width="230" height="150" as="geometry" />
        </mxCell>
        <mxCell id="y0zhd_hXmwGebYRurzh6-122" style="edgeStyle=none;rounded=0;html=1;dashed=1;labelBackgroundColor=none;startArrow=none;startFill=0;startSize=5;endArrow=oval;endFill=0;endSize=5;jettySize=auto;orthogonalLoop=1;strokeWidth=1;fontFamily=Verdana;fontSize=12;exitX=0;exitY=1;exitDx=0;exitDy=0;exitPerimeter=0;" edge="1" parent="1" source="y0zhd_hXmwGebYRurzh6-101">
          <mxGeometry relative="1" as="geometry">
            <mxPoint x="600" y="270" as="sourcePoint" />
            <mxPoint x="560" y="310" as="targetPoint" />
          </mxGeometry>
        </mxCell>
        <mxCell id="y0zhd_hXmwGebYRurzh6-123" style="edgeStyle=none;rounded=0;html=1;dashed=1;labelBackgroundColor=none;startArrow=none;startFill=0;startSize=5;endArrow=oval;endFill=0;endSize=5;jettySize=auto;orthogonalLoop=1;strokeWidth=1;fontFamily=Verdana;fontSize=12;exitX=0.71;exitY=1.027;exitDx=0;exitDy=0;exitPerimeter=0;" edge="1" parent="1" source="y0zhd_hXmwGebYRurzh6-65">
          <mxGeometry relative="1" as="geometry">
            <mxPoint x="618" y="260" as="sourcePoint" />
            <mxPoint x="200" y="310" as="targetPoint" />
          </mxGeometry>
        </mxCell>
        <mxCell id="y0zhd_hXmwGebYRurzh6-124" style="edgeStyle=none;rounded=0;html=1;dashed=1;labelBackgroundColor=none;startArrow=none;startFill=0;startSize=5;endArrow=oval;endFill=0;endSize=5;jettySize=auto;orthogonalLoop=1;strokeWidth=1;fontFamily=Verdana;fontSize=12;exitX=0.619;exitY=0.007;exitDx=0;exitDy=0;exitPerimeter=0;" edge="1" parent="1" source="y0zhd_hXmwGebYRurzh6-112">
          <mxGeometry relative="1" as="geometry">
            <mxPoint x="705" y="670" as="sourcePoint" />
            <mxPoint x="560" y="710" as="targetPoint" />
          </mxGeometry>
        </mxCell>
        <mxCell id="y0zhd_hXmwGebYRurzh6-125" value="&lt;font style=&quot;font-size: 24px;&quot;&gt;Oczekiwanie&lt;/font&gt;" style="text;html=1;strokeColor=none;fillColor=none;align=center;verticalAlign=middle;whiteSpace=wrap;rounded=0;" vertex="1" parent="1">
          <mxGeometry x="330" y="10" width="320" height="30" as="geometry" />
        </mxCell>
      </root>
    </mxGraphModel>
  </diagram>
</mxfile>
